<?xml version="1.0" encoding="UTF-8" standalone="no"?>
<!DOCTYPE svg PUBLIC "-//W3C//DTD SVG 1.1//EN" "http://www.w3.org/Graphics/SVG/1.1/DTD/svg11.dtd">
<svg width="100%" height="100%" viewBox="0 0 512 512" version="1.1" xmlns="http://www.w3.org/2000/svg"
	xmlns:xlink="http://www.w3.org/1999/xlink" xml:space="preserve" xmlns:serif="http://www.serif.com/"
	style="fill-rule:evenodd;clip-rule:evenodd;stroke-linejoin:round;stroke-miterlimit:2;">
	<g id="图层-1" serif:id="图层 1">
		<g transform="matrix(0,-1,-1,0,256,-0.3289)">
			<path
				d="M-256.164,-256.164C-397.64,-256.164 -512.329,-141.475 -512.329,-0C-512.329,141.476 -397.64,256.164 -256.164,256.164C-114.688,256.164 -0,141.476 -0,-0C-0,-141.475 -114.688,-256.164 -256.164,-256.164"
				style="fill-rule:nonzero;" />
		</g>
		<g transform="matrix(0.957067,0,0,0.878667,7.96252,56.054)">
			<clipPath id="_clip1">
				<path
					d="M242.914,0C110.578,6.656 4.72,113.728 0,246.565L0,265.106C4.875,402.292 117.624,512 256,512C394.376,512 507.125,402.292 512,265.106L512,246.566C507.28,113.728 401.422,6.656 269.085,0L242.914,0Z"
					clip-rule="nonzero" />
			</clipPath>
			<g clip-path="url(#_clip1)">
				<g transform="matrix(1,0,0,1,74.943,376.002)">
					<path d="M0,-1.001C0.843,-0.323 1.373,0 1.373,0C1.373,0 0.839,-0.388 0,-1.001"
						style="fill:white;fill-rule:nonzero;" />
				</g>
				<g transform="matrix(1,0,0,1,78.7003,270.852)">
					<path
						d="M0,-3.623C-1.99,2.643 -2.411,3.822 -2.411,3.822C-2.411,3.822 -10.172,2.79 -14.595,-2.591C-19.018,-7.972 -20.418,-11.584 -20.418,-11.584C-20.418,-11.584 -14.89,-12.984 -7.666,-12.984C-0.442,-12.984 4.791,-13.574 4.791,-13.574C4.791,-13.574 1.99,-9.889 0,-3.623M117.047,151.845C113.317,156.768 100.339,173.029 100.339,173.029C100.339,173.029 81.841,177.802 75.575,180.339C69.31,182.875 53.646,184.814 40.369,193.019C27.092,201.223 16.559,229.557 16.559,229.557L382.59,229.557C382.59,229.557 380.381,221.448 379.031,215.435C377.681,209.422 375.349,204.513 367.618,196.414C359.887,188.314 325.772,176.656 313.567,171.257C301.363,165.857 298.157,167.393 298.157,167.393C298.157,167.393 295.133,164.18 293.055,162.227C290.976,160.275 287.059,158.925 287.059,158.925C287.059,158.925 287.14,157.299 286.652,154.778C286.164,152.257 281.285,150.061 279.334,148.516C277.382,146.971 278.089,142.986 278.089,142.986L278.089,142.983C281.057,144.336 285.988,145.971 292.826,146.202C304.736,146.603 313.567,142.589 313.567,142.589C313.567,142.589 298.321,145.95 287.474,131.884C282.647,125.625 280.719,119.365 278.13,113.571C278.9,113.653 282.532,113.835 287.741,110.875C293.629,107.53 296.707,104.184 296.707,104.184C296.707,104.184 290.626,116.648 304.892,133.797C314.264,145.064 322.972,139.613 322.972,139.613C322.972,139.613 319.275,139.848 317.845,138.328C314.697,134.984 314.257,129.562 314.248,123.834C314.235,115.959 315.178,111.995 315.178,111.995C315.178,111.995 315.33,114.07 316.909,119.65C318.489,125.23 321.156,130.707 321.156,130.707L321.156,130.693C323.133,135.396 327.242,139.022 327.242,139.022L326.625,136.756C326.625,136.756 327.007,136.815 327.919,137.403C328.831,137.992 330.546,137.815 330.546,137.815C330.546,137.815 327.047,135.774 324.326,131.79C321.606,127.806 321.8,122.364 324.035,113.813C326.27,105.262 335.018,99.298 335.018,99.298C335.018,99.298 336.146,102.533 342.174,106.273C349.489,110.81 355.019,105.789 355.019,105.789C355.019,105.789 351.936,108.368 348.075,106.468C346.566,105.726 345.729,104.313 345.284,102.759C344.32,99.397 345.344,95.782 347.724,93.221C350.371,90.373 354.634,85.519 358.83,79.6C365.625,70.019 372.071,54.688 375.381,40.228C378.691,25.769 371.548,-4.893 371.548,-4.893C371.548,-4.893 371.722,-8.726 370.677,-14.649C369.632,-20.572 367.889,-32.244 364.928,-42.697C361.966,-53.15 359.197,-64.954 359.197,-64.954C359.197,-64.954 360.23,-67.02 362.942,-72.186C365.654,-77.352 367.721,-82.647 367.592,-84.585C367.462,-86.522 359.455,-88.072 354.547,-89.621C349.64,-91.171 346.54,-98.662 346.54,-98.662C346.54,-98.662 346.928,-102.278 347.057,-108.607C347.186,-114.935 338.874,-127.799 338.874,-127.799C338.874,-127.799 339.524,-135.93 323.587,-158.373C307.65,-180.815 297.567,-199.354 241.949,-216.267C186.332,-233.18 156.372,-218.158 156.372,-218.158C156.372,-218.158 135.792,-222.707 97.258,-195.285C64.516,-171.985 50.037,-132.877 44.741,-114.23C41.734,-103.638 35.622,-94.175 27.094,-87.212C26.987,-87.125 26.88,-87.037 26.772,-86.95C15.972,-78.218 -2.411,-83.044 -2.411,-83.044C-2.411,-83.044 3.697,-71.887 14.848,-66.484C25.998,-61.081 38.874,-67.864 38.874,-67.864C38.874,-67.864 31.296,-52.732 17.534,-43.241C3.772,-33.75 -23.277,-18.328 -23.277,-18.328C-23.277,-18.328 -27.274,-20.577 -27.436,-29.558C-27.548,-35.761 -24.907,-42.275 -24.907,-42.275C-24.907,-42.275 -31.328,-34.951 -30.82,-18.734C-30.451,-6.973 -25.493,6.458 -17.565,11.883C-9.636,17.308 -5.324,18.003 -1.847,18.281C1.63,18.559 4.412,18.281 4.412,18.281C4.412,18.281 -19.371,36.359 -23.963,58.898C-28.554,81.436 -14.567,94.897 -11.949,96.97C-9.99,98.52 -4.797,102.329 -2.305,104.149C-5.292,101.749 -12.224,94.894 -13.585,82.135C-15.33,65.774 -7.413,62.187 -7.413,62.187C-7.413,62.187 -10.677,69.428 4.697,87.391C20.071,105.354 34.798,118.625 42.566,121.214C50.333,123.803 52.437,123.965 52.437,123.965C52.437,123.965 39.554,128.554 38.95,143.52C38.347,158.485 39.916,161.986 42.571,164.761C45.226,167.537 47.64,168.865 47.64,168.865C47.64,168.865 41.243,162.589 43.174,155.227C45.105,147.864 55.485,138.571 69.244,137.244C83.003,135.916 101.952,138.933 114.987,134.226C128.021,129.519 132.487,127.709 135.746,119.622C139.004,111.536 142.867,103.208 142.867,103.208C142.867,103.208 147.091,105.019 148.66,108.519C150.229,112.019 152.401,119.984 152.401,119.984C152.401,119.984 131.069,131.11 127.937,132.9C124.804,134.69 120.776,146.923 117.047,151.845"
						style="fill:white;fill-rule:nonzero;" />
				</g>
				<g transform="matrix(1,0,0,1,189.141,512)">
					<path d="M0,-41.029L-93.882,-11.591L-97.711,0L293.132,0L293.132,-20.514L0,-41.029Z"
						style="fill:white;fill-rule:nonzero;" />
				</g>
			</g>
		</g>
		<g transform="matrix(1,0,0,1,256,512)">
			<path
				d="M0,-512.329C-141.476,-512.329 -256.164,-397.64 -256.164,-256.165C-256.164,-114.689 -141.476,0 0,0C141.476,0 256.164,-114.689 256.164,-256.165C256.164,-397.64 141.476,-512.329 0,-512.329M0,-505.329C33.64,-505.329 66.27,-498.742 96.984,-485.751C126.653,-473.202 153.301,-455.235 176.186,-432.35C199.071,-409.465 217.038,-382.818 229.587,-353.148C242.578,-322.435 249.164,-289.805 249.164,-256.165C249.164,-222.524 242.578,-189.894 229.587,-159.181C217.038,-129.511 199.071,-102.864 176.186,-79.979C153.301,-57.094 126.653,-39.127 96.984,-26.578C66.27,-13.587 33.64,-7 0,-7C-33.64,-7 -66.27,-13.587 -96.984,-26.578C-126.653,-39.127 -153.301,-57.094 -176.186,-79.979C-199.071,-102.864 -217.038,-129.511 -229.587,-159.181C-242.577,-189.894 -249.164,-222.524 -249.164,-256.165C-249.164,-289.805 -242.577,-322.435 -229.587,-353.148C-217.038,-382.818 -199.071,-409.465 -176.186,-432.35C-153.301,-455.235 -126.653,-473.202 -96.984,-485.751C-66.27,-498.742 -33.64,-505.329 0,-505.329"
				style="fill-rule:nonzero;" />
		</g>
	</g>
</svg>