<?xml version="1.0" encoding="UTF-8"?>
<svg viewBox="0 0 270 105" fill="none" xmlns="http://www.w3.org/2000/svg">
  <style>
    @keyframes draw {
      from { stroke-dashoffset: 1 }
      to   { stroke-dashoffset: 0 }
    }
    @keyframes dot-in {
      0%   { stroke-dashoffset: 1; opacity: 0 }
      50%  { opacity: 1 }
      100% { stroke-dashoffset: 0; opacity: 1 }
    }
    .mask-stroke {
      stroke-dasharray: 1 2;
      stroke-dashoffset: 1;
      animation: draw 0.9s cubic-bezier(0.35, 0, 0.15, 1) 0.3s forwards;
    }
    .dot {
      stroke-dasharray: 1 2;
      stroke-dashoffset: 1;
      opacity: 0;
    }
    .dot-1 {
      animation: dot-in 0.1s ease-out 1.2s forwards;
    }
    .dot-2 {
      animation: dot-in 0.1s ease-out 1.35s forwards;
    }
  </style>

  <defs>
    <mask id="reveal">
      <path
        class="mask-stroke"
        pathLength="1"
        d="
          M25,55
          C25,55 35,55 35,70
          C35,80 40,82 45,82
          C55,82 60,65 60,65
          C60,65 65,55 75,55
          C85,55 85,82 85,82
          C85,82 95,55 105,55
          C115,55 115,82 115,82
          C115,82 135,85 138,70
          C140,58 130,58 128,62
          C125,70 145,82 155,82
          C170,82 175,65 175,65
          C175,65 175,82 185,82
          C195,82 230,70 245,50
        "
        stroke="white"
        stroke-width="20"
        fill="none"
        stroke-linecap="round"
        stroke-linejoin="round"
      />
    </mask>
  </defs>

  <!-- Variable-width filled outline, revealed by mask animation -->
  <path
    mask="url(#reveal)"
    fill="currentColor"
    d="M25.0,55.0 Q25.0,55.0 25.7,54.7 Q26.4,54.4 27.6,54.5 Q28.7,54.7 29.8,55.2 Q30.9,55.6 31.6,56.2 Q32.3,56.7 33.0,57.5 Q33.7,58.3 34.3,59.3 Q34.9,60.3 35.3,61.5 Q35.8,62.7 36.1,64.2 Q36.4,65.6 36.5,66.5 Q36.6,67.3 36.6,68.2 Q36.7,69.1 36.7,70.3 Q36.8,71.6 36.9,72.5 Q37.1,73.5 37.2,74.2 Q37.4,75.0 37.8,75.9 Q38.2,76.8 38.9,77.6 Q39.5,78.4 40.3,78.8 Q41.0,79.3 41.9,79.5 Q42.8,79.8 43.8,79.9 Q44.8,79.9 45.6,79.8 Q46.4,79.8 47.3,79.5 Q48.1,79.2 48.9,78.7 Q49.7,78.2 50.5,77.6 Q51.3,76.9 52.0,76.1 Q52.7,75.3 53.4,74.4 Q54.0,73.5 54.6,72.5 Q55.1,71.6 55.6,70.6 Q56.1,69.7 56.5,68.8 Q56.9,67.9 57.2,67.2 Q57.5,66.4 57.7,65.7 Q58.0,64.9 58.4,64.0 Q58.8,63.1 59.2,62.4 Q59.7,61.7 60.4,60.8 Q61.1,59.9 61.7,59.2 Q62.3,58.6 63.0,57.9 Q63.7,57.3 64.5,56.7 Q65.3,56.0 66.3,55.5 Q67.2,54.9 68.3,54.5 Q69.3,54.0 70.5,53.7 Q71.7,53.4 73.0,53.2 Q74.3,53.1 75.7,53.3 Q77.1,53.5 78.4,54.2 Q79.7,54.9 80.7,56.1 Q81.7,57.2 82.5,58.6 Q83.2,60.0 83.5,60.8 Q83.8,61.6 84.1,62.4 Q84.3,63.2 84.5,64.0 Q84.7,64.8 84.9,65.6 Q85.1,66.5 85.3,67.3 Q85.4,68.1 85.6,69.0 Q85.7,69.8 85.8,70.6 Q85.9,71.4 86.1,73.0 Q86.3,74.5 86.4,75.9 Q86.5,77.3 86.6,78.4 Q86.7,79.5 86.7,80.6 Q86.8,81.6 85.9,80.8 Q85.0,80.1 84.2,80.5 Q83.5,80.9 83.8,79.9 Q84.2,78.9 84.7,77.8 Q85.2,76.7 85.8,75.3 Q86.4,74.0 86.8,73.2 Q87.2,72.5 87.6,71.7 Q88.0,70.9 88.4,70.1 Q88.9,69.3 89.3,68.5 Q89.8,67.7 90.3,66.9 Q90.8,66.1 91.3,65.3 Q91.8,64.5 92.3,63.7 Q92.8,62.9 93.4,62.2 Q93.9,61.4 94.5,60.7 Q95.0,59.9 95.6,59.3 Q96.2,58.6 96.8,58.0 Q97.4,57.3 98.0,56.8 Q98.6,56.2 99.9,55.3 Q101.2,54.5 102.6,54.0 Q104.1,53.5 105.5,53.6 Q107.0,53.7 108.3,54.4 Q109.6,55.1 110.6,56.2 Q111.6,57.3 112.4,58.7 Q113.1,60.1 113.4,60.9 Q113.7,61.6 114.0,62.4 Q114.2,63.2 114.4,64.0 Q114.7,64.8 114.8,65.7 Q115.0,66.5 115.2,67.3 Q115.4,68.1 115.5,69.0 Q115.6,69.8 115.7,70.6 Q115.9,71.4 116.0,73.0 Q116.2,74.5 116.4,75.9 Q116.5,77.3 116.6,78.4 Q116.6,79.5 116.7,80.6 Q116.8,81.6 116.2,80.9 Q115.7,80.3 116.7,80.3 Q117.6,80.3 118.5,80.3 Q119.4,80.3 120.5,80.3 Q121.5,80.2 122.7,80.1 Q123.8,80.0 125.0,79.7 Q126.2,79.5 127.4,79.1 Q128.6,78.7 129.7,78.2 Q130.8,77.6 131.8,76.9 Q132.7,76.1 133.6,75.2 Q134.4,74.2 135.0,73.0 Q135.6,71.8 136.0,70.4 Q136.4,69.0 136.4,67.9 Q136.5,66.8 136.4,65.9 Q136.3,65.0 135.9,64.0 Q135.5,63.1 134.8,62.5 Q134.1,61.9 133.3,61.7 Q132.5,61.6 131.5,61.8 Q130.6,62.1 130.2,62.9 Q129.8,63.8 130.1,64.8 Q130.4,65.9 130.9,66.8 Q131.4,67.7 132.2,68.6 Q133.0,69.6 134.1,70.6 Q135.2,71.6 136.4,72.6 Q137.7,73.5 138.3,74.0 Q139.0,74.5 139.7,74.9 Q140.4,75.3 141.2,75.8 Q141.9,76.2 142.6,76.6 Q143.4,77.0 144.1,77.3 Q144.9,77.7 145.6,78.0 Q146.4,78.3 147.8,78.8 Q149.3,79.4 150.7,79.7 Q152.0,80.0 153.3,80.2 Q154.5,80.3 155.9,80.2 Q157.4,80.1 158.8,79.8 Q160.2,79.5 161.5,78.9 Q162.7,78.4 163.8,77.7 Q164.9,77.0 165.9,76.1 Q166.9,75.3 167.7,74.3 Q168.5,73.4 169.2,72.5 Q169.9,71.5 170.5,70.6 Q171.0,69.6 171.5,68.8 Q171.9,67.9 172.2,67.2 Q172.5,66.4 172.8,65.7 Q173.1,64.9 173.8,64.2 Q174.5,63.6 175.6,64.2 Q176.7,64.8 176.9,65.9 Q177.1,67.0 177.2,68.1 Q177.4,69.3 177.5,70.2 Q177.7,71.1 177.9,72.0 Q178.2,73.0 178.5,73.9 Q178.8,74.8 179.2,75.7 Q179.6,76.5 180.1,77.2 Q180.6,77.9 181.5,78.7 Q182.4,79.4 183.6,79.7 Q184.7,80.0 185.8,80.0 Q187.0,79.9 188.6,79.7 Q190.3,79.5 191.3,79.3 Q192.2,79.2 193.3,78.9 Q194.4,78.7 195.5,78.4 Q196.7,78.2 197.9,77.8 Q199.1,77.5 200.4,77.1 Q201.7,76.7 203.0,76.3 Q204.3,75.9 205.7,75.4 Q207.1,74.9 208.5,74.4 Q209.9,73.8 211.3,73.2 Q212.7,72.6 214.1,72.0 Q215.6,71.3 217.0,70.6 Q218.4,69.9 219.9,69.2 Q221.3,68.4 222.7,67.6 Q224.1,66.8 225.5,66.0 Q226.9,65.1 228.2,64.2 Q229.6,63.3 230.9,62.4 Q232.2,61.5 233.5,60.5 Q234.8,59.5 236.0,58.5 Q237.2,57.5 238.4,56.5 Q239.6,55.4 240.7,54.4 Q241.8,53.3 242.9,52.3 Q244.0,51.2 244.0,51.2 Q244.0,51.2 244.0,51.2 Q244.0,51.2 243.1,52.4 Q242.2,53.7 241.2,54.9 Q240.2,56.1 239.0,57.2 Q237.9,58.3 236.7,59.4 Q235.5,60.5 234.3,61.5 Q233.0,62.5 231.7,63.5 Q230.3,64.5 229.0,65.4 Q227.6,66.3 226.2,67.2 Q224.8,68.1 223.4,68.9 Q222.0,69.8 220.6,70.6 Q219.2,71.4 217.7,72.1 Q216.3,72.9 214.9,73.6 Q213.5,74.3 212.1,75.0 Q210.7,75.7 209.3,76.3 Q207.9,76.9 206.5,77.5 Q205.2,78.1 203.8,78.7 Q202.5,79.2 201.2,79.7 Q200.0,80.2 198.7,80.6 Q197.5,81.1 196.3,81.4 Q195.2,81.8 194.1,82.2 Q193.0,82.5 191.9,82.8 Q190.9,83.0 190.0,83.2 Q189.0,83.4 188.1,83.6 Q187.3,83.7 186.5,83.8 Q185.7,83.9 184.2,83.8 Q182.8,83.6 181.6,83.2 Q180.3,82.7 179.3,81.9 Q178.3,81.2 177.6,80.3 Q176.8,79.3 176.2,78.3 Q175.6,77.3 175.2,76.2 Q174.7,75.1 174.4,74.0 Q174.1,72.9 173.8,71.9 Q173.6,70.8 173.5,69.9 Q173.3,68.9 173.2,68.1 Q173.2,67.3 173.2,66.3 Q173.2,65.3 174.9,65.7 Q176.6,66.2 176.2,67.0 Q175.9,67.9 175.5,68.7 Q175.1,69.5 174.5,70.5 Q174.0,71.4 173.4,72.4 Q172.7,73.5 171.9,74.6 Q171.1,75.6 170.1,76.7 Q169.1,77.7 168.0,78.7 Q166.8,79.7 165.5,80.5 Q164.2,81.3 163.4,81.7 Q162.7,82.0 161.9,82.3 Q161.1,82.6 160.3,82.8 Q159.5,83.1 158.6,83.2 Q157.7,83.4 156.8,83.5 Q155.9,83.6 154.4,83.5 Q152.8,83.4 151.3,83.2 Q149.8,82.9 149.1,82.6 Q148.3,82.4 147.5,82.2 Q146.7,81.9 145.9,81.6 Q145.1,81.3 144.3,81.0 Q143.5,80.6 142.7,80.3 Q141.9,79.9 141.1,79.5 Q140.3,79.1 139.5,78.7 Q138.7,78.3 137.9,77.8 Q137.1,77.4 136.4,76.9 Q135.6,76.4 134.9,75.9 Q134.2,75.4 133.5,74.9 Q132.8,74.4 132.1,73.8 Q131.5,73.3 130.9,72.8 Q130.3,72.2 129.2,71.0 Q128.2,69.9 127.4,68.6 Q126.6,67.3 126.2,66.0 Q125.8,64.6 125.9,63.3 Q126.0,61.9 126.5,60.9 Q127.0,59.9 127.6,59.4 Q128.2,58.9 129.3,58.4 Q130.4,57.9 131.2,57.8 Q132.0,57.7 132.8,57.8 Q133.7,57.8 134.5,58.1 Q135.3,58.3 136.1,58.8 Q136.8,59.3 137.5,59.9 Q138.1,60.6 138.6,61.5 Q139.1,62.3 139.4,63.4 Q139.7,64.4 139.8,65.6 Q139.9,66.9 139.8,68.3 Q139.7,69.7 139.5,70.5 Q139.4,71.3 139.1,72.3 Q138.8,73.2 138.4,74.0 Q138.1,74.8 137.6,75.6 Q137.2,76.3 136.7,77.0 Q136.2,77.7 135.6,78.3 Q135.1,78.8 133.8,79.8 Q132.6,80.8 131.2,81.4 Q129.9,82.1 128.5,82.6 Q127.1,83.1 125.7,83.4 Q124.4,83.7 123.1,83.9 Q121.8,84.0 120.6,84.1 Q119.4,84.1 118.4,84.1 Q117.4,84.1 116.4,84.0 Q115.4,83.9 114.6,83.5 Q113.8,83.2 113.5,82.4 Q113.2,81.7 113.2,80.7 Q113.2,79.7 113.2,78.6 Q113.1,77.5 113.1,76.2 Q113.0,74.9 112.8,73.4 Q112.6,71.9 112.4,70.4 Q112.1,68.8 111.7,67.3 Q111.4,65.7 110.9,64.3 Q110.5,62.9 110.0,61.7 Q109.4,60.5 108.8,59.5 Q108.2,58.6 107.6,58.0 Q106.9,57.4 105.8,57.1 Q104.7,56.7 103.7,57.0 Q102.8,57.2 101.7,57.9 Q100.7,58.5 99.6,59.6 Q98.6,60.6 98.0,61.2 Q97.5,61.8 97.0,62.5 Q96.5,63.2 96.0,63.9 Q95.5,64.6 95.0,65.4 Q94.5,66.2 94.1,66.9 Q93.6,67.7 93.2,68.5 Q92.7,69.3 92.3,70.1 Q91.9,70.9 91.5,71.7 Q91.1,72.5 90.8,73.3 Q90.4,74.0 90.1,74.8 Q89.7,75.5 89.2,76.8 Q88.6,78.2 88.1,79.3 Q87.7,80.3 87.2,81.3 Q86.8,82.4 85.9,83.0 Q85.0,83.7 84.1,82.7 Q83.2,81.7 83.2,80.7 Q83.2,79.7 83.2,78.6 Q83.1,77.5 83.0,76.2 Q82.9,74.9 82.7,73.4 Q82.6,71.9 82.3,70.4 Q82.0,68.8 81.7,67.3 Q81.3,65.8 80.8,64.4 Q80.4,62.9 79.8,61.7 Q79.3,60.5 78.7,59.6 Q78.1,58.7 77.1,58.0 Q76.2,57.3 75.4,57.1 Q74.6,57.0 73.6,57.1 Q72.6,57.3 71.7,57.5 Q70.8,57.8 70.0,58.1 Q69.2,58.5 68.5,58.9 Q67.7,59.4 67.1,59.9 Q66.4,60.4 65.6,61.2 Q64.7,62.0 64.1,62.8 Q63.4,63.5 62.8,64.4 Q62.2,65.2 61.9,65.9 Q61.5,66.6 61.1,67.6 Q60.7,68.6 60.4,69.5 Q60.0,70.4 59.5,71.4 Q59.0,72.4 58.4,73.5 Q57.8,74.5 57.2,75.6 Q56.5,76.7 55.7,77.7 Q54.9,78.8 53.9,79.7 Q53.0,80.7 51.9,81.5 Q50.8,82.3 49.6,82.8 Q48.4,83.4 47.1,83.7 Q45.8,84.0 44.5,84.0 Q43.3,83.9 42.2,83.8 Q41.2,83.6 40.2,83.2 Q39.2,82.8 38.3,82.2 Q37.3,81.6 36.5,80.7 Q35.7,79.9 35.3,79.2 Q34.9,78.4 34.5,77.6 Q34.2,76.8 33.9,75.9 Q33.7,75.0 33.6,73.9 Q33.4,72.9 33.3,71.7 Q33.3,70.5 33.2,69.1 Q33.1,67.7 32.9,66.3 Q32.7,65.0 32.4,63.9 Q32.1,62.8 31.7,62.0 Q31.3,61.1 30.9,60.4 Q30.5,59.7 29.8,58.9 Q29.1,58.2 28.4,57.6 Q27.7,57.0 26.9,56.5 Q26.1,56.1 25.6,55.5 Q25.0,55.0 25.0,55.0 Z"
  />

  <!-- Dot for first 'i' -->
  <line
    class="dot dot-1"
    pathLength="1"
    x1="32" y1="35" x2="34" y2="42"
    stroke="currentColor"
    stroke-width="3"
    stroke-linecap="round"
  />

  <!-- Dot for last 'i' -->
  <line
    class="dot dot-2"
    pathLength="1"
    x1="178" y1="38" x2="180" y2="45"
    stroke="currentColor"
    stroke-width="3"
    stroke-linecap="round"
  />
</svg>
