<?xml version="1.0" encoding="utf-8"?>
<!-- Generator: Adobe Illustrator 26.0.2, SVG Export Plug-In . SVG Version: 6.00 Build 0)  -->
<svg version="1.1" id="图层_1" xmlns="http://www.w3.org/2000/svg" xmlns:xlink="http://www.w3.org/1999/xlink" x="0px"
  y="0px" viewBox="0 0 512 512" style="enable-background:new 0 0 512 512;" xml:space="preserve">
  <style>
    path {
      fill: black;
    }

    @media (prefers-color-scheme: dark) {
      path {
        fill: white;
      }
    }
  </style>
  <g>
    <path d="M119.07,463.87c13.28-8.2,28.94-10.14,35.21-12.68c6.27-2.54,24.76-7.31,24.76-7.31s12.98-16.26,16.71-21.18
		c3.73-4.92,7.76-17.16,10.89-18.95c3.13-1.79,24.46-12.92,24.46-12.92s-2.17-7.97-3.74-11.47c-1.57-3.5-5.79-5.31-5.79-5.31
		s-3.86,8.33-7.12,16.41c-3.26,8.09-7.72,9.9-20.76,14.6c-13.03,4.71-31.98,1.69-45.74,3.02c-13.76,1.33-24.14,10.62-26.07,17.98
		c-1.93,7.36,4.47,13.64,4.47,13.64s-2.41-1.33-5.07-4.1c-2.66-2.78-4.22-6.28-3.62-21.24c0.6-14.97,13.49-19.55,13.49-19.55
		s-2.1-0.16-9.87-2.75c-7.77-2.59-22.49-15.86-37.87-33.82c-15.37-17.96-12.11-25.2-12.11-25.2s-7.92,3.59-6.17,19.95
		c1.36,12.76,8.29,19.61,11.28,22.01c-2.49-1.82-7.69-5.63-9.64-7.18c-2.62-2.07-16.61-15.53-12.01-38.07
		c4.59-22.54,28.38-40.62,28.38-40.62s-2.78,0.28-6.26,0c-3.48-0.28-7.79-0.97-15.72-6.4s-12.89-18.86-13.26-30.62
		c-0.51-16.22,5.91-23.54,5.91-23.54s-2.64,6.51-2.53,12.72c0.16,8.98,4.16,11.23,4.16,11.23s27.05-15.42,40.81-24.91
		c13.76-9.49,21.34-24.62,21.34-24.62s-12.88,6.78-24.03,1.38c-11.15-5.4-17.26-16.56-17.26-16.56s18.38,4.83,29.18-3.91
		c0.11-0.09,0.22-0.17,0.32-0.26c8.53-6.96,14.64-16.43,17.65-27.02c5.3-18.65,19.77-57.76,52.52-81.06
		c38.53-27.42,59.11-22.87,59.11-22.87s29.96-15.02,85.58,1.89c55.62,16.91,65.7,35.45,81.64,57.89
		c15.94,22.44,15.29,30.57,15.29,30.57s8.31,12.86,8.18,19.19c-0.13,6.33-0.52,9.94-0.52,9.94s3.1,7.49,8.01,9.04
		c4.91,1.55,12.91,3.1,13.04,5.04c0.13,1.94-1.94,7.23-4.65,12.4c-2.71,5.17-3.75,7.23-3.75,7.23s2.77,11.8,5.73,22.26
		c2.96,10.45,4.7,22.13,5.75,28.05c1.05,5.92,0.87,9.76,0.87,9.76s7.14,30.66,3.83,45.12c-3.31,14.46-9.76,29.79-16.55,39.37
		c-4.2,5.92-8.46,10.77-11.11,13.62c-2.38,2.56-3.4,6.18-2.44,9.54c0.45,1.55,1.28,2.97,2.79,3.71c3.86,1.9,6.94-0.68,6.94-0.68
		s-5.53,5.02-12.84,0.48c-6.03-3.74-7.16-6.97-7.16-6.97s-8.75,5.96-10.98,14.51c-2.23,8.55-2.43,13.99,0.29,17.98
		c2.72,3.98,6.22,6.02,6.22,6.02s-1.71,0.18-2.63-0.41c-0.91-0.59-1.29-0.65-1.29-0.65l0.62,2.27c0,0-4.11-3.63-6.09-8.33l0,0.01
		c0,0-2.67-5.48-4.25-11.06s-1.73-7.65-1.73-7.65s-0.94,3.96-0.93,11.84c0.01,5.73,0.45,11.15,3.6,14.49
		c1.43,1.52,5.13,1.28,5.13,1.28s-8.71,5.45-18.08-5.82c-14.27-17.15-8.18-29.61-8.18-29.61s-3.08,3.35-8.97,6.69
		c-5.21,2.96-8.84,2.78-9.61,2.7c2.59,5.79,4.52,12.05,9.34,18.31c10.85,14.07,26.09,10.71,26.09,10.71s-8.83,4.01-20.74,3.61
		c-6.84-0.23-11.77-1.87-14.74-3.22l0,0c0,0-0.71,3.98,1.24,5.53s6.83,3.74,7.32,6.26c0.49,2.52,0.41,4.15,0.41,4.15
		s3.92,1.35,6,3.3c2.08,1.95,5.1,5.17,5.1,5.17s3.21-1.54,15.41,3.86c5.83,2.58,16.65,6.58,27.21,10.95
		c56.62-46.99,92.69-117.89,92.69-197.22C512.16,114.36,397.48-0.33,256-0.33S-0.16,114.36-0.16,255.84
		c0,88.69,45.08,166.85,113.57,212.83C115.22,466.74,117.11,465.08,119.07,463.87z M74.94,375c0.84,0.61,1.37,1,1.37,1
		S75.79,375.68,74.94,375z" />
    <path d="M64.11,268.26c4.42,5.38,12.18,6.41,12.18,6.41s0.42-1.18,2.41-7.44s4.79-9.95,4.79-9.95s-5.23,0.59-12.46,0.59
		c-7.22,0-12.75,1.4-12.75,1.4S59.68,262.88,64.11,268.26z" />
  </g>
  <g>
    <path
      d="M256,6.67c33.64,0,66.27,6.59,96.98,19.58c29.67,12.55,56.32,30.52,79.2,53.4c22.89,22.89,40.85,49.53,53.4,79.2
		c12.99,30.71,19.58,63.34,19.58,96.98s-6.59,66.27-19.58,96.98c-12.55,29.67-30.52,56.32-53.4,79.2
		c-22.89,22.89-49.53,40.85-79.2,53.4C322.27,498.41,289.64,505,256,505s-66.27-6.59-96.98-19.58
		c-29.67-12.55-56.32-30.52-79.2-53.4c-22.89-22.89-40.85-49.53-53.4-79.2c-12.99-30.71-19.58-63.34-19.58-96.98
		s6.59-66.27,19.58-96.98c12.55-29.67,30.52-56.32,53.4-79.2s49.53-40.85,79.2-53.4C189.73,13.26,222.36,6.67,256,6.67 M256-0.33
		C114.52-0.33-0.16,114.36-0.16,255.84S114.52,512,256,512s256.16-114.69,256.16-256.16S397.48-0.33,256-0.33L256-0.33z" />
  </g>
</svg>